<svg width="13" height="19" viewBox="0 0 13 19" fill="none" xmlns="http://www.w3.org/2000/svg">
<path d="M13 12.0909C13 12.3248 12.9196 12.5272 12.7588 12.6982L7.07129 18.7436C6.91048 18.9145 6.72005 19 6.5 19C6.27995 19 6.08952 18.9145 5.92871 18.7436L0.241211 12.6982C0.0804036 12.5272 0 12.3248 0 12.0909C0 11.857 0.0804036 11.6546 0.241211 11.4837C0.402018 11.3127 0.592448 11.2273 0.8125 11.2273H12.1875C12.4076 11.2273 12.598 11.3127 12.7588 11.4837C12.9196 11.6546 13 11.857 13 12.0909ZM13 6.90909C13 7.14299 12.9196 7.34541 12.7588 7.51634C12.598 7.68726 12.4076 7.77273 12.1875 7.77273H0.8125C0.592448 7.77273 0.402018 7.68726 0.241211 7.51634C0.0804036 7.34541 0 7.14299 0 6.90909C0 6.67519 0.0804036 6.47277 0.241211 6.30185L5.92871 0.256392C6.08952 0.085464 6.27995 0 6.5 0C6.72005 0 6.91048 0.085464 7.07129 0.256392L12.7588 6.30185C12.9196 6.47277 13 6.67519 13 6.90909Z" fill="black"/>
</svg>
